<svg width="2073" height="2073" viewBox="0 0 2073 2073" fill="none" xmlns="http://www.w3.org/2000/svg">
<path d="M1864.86 0C1979.3 1.95943e-06 2072.07 92.7699 2072.07 207.207V1864.86C2072.07 1979.3 1979.3 2072.07 1864.86 2072.07H207.207C92.7701 2072.07 0.00026198 1979.3 0 1864.86V207.207C0 92.7699 92.77 0.000118187 207.207 0H1864.86ZM776.945 171.213C657.594 171.213 552.241 191.104 460.886 230.888C369.531 270.671 298.068 326.663 246.496 398.863C194.925 471.063 169.139 555.788 169.139 653.037C169.139 767.968 203.029 860.797 270.809 931.523C340.062 1000.78 444.678 1050.14 584.657 1079.61L674.731 1098.44V1532.81C631.654 1530.14 589.841 1524.95 549.294 1517.23C488.882 1503.97 431.417 1485.55 376.898 1461.97C323.854 1436.92 273.018 1407.45 224.394 1373.56L138.196 1596.8C186.821 1633.63 242.076 1665.31 303.962 1691.83C367.321 1718.36 435.837 1738.25 509.511 1751.51C584.658 1766.24 662.752 1773.61 743.793 1773.61C869.037 1773.61 977.338 1754.46 1068.69 1716.15C1161.52 1676.36 1232.99 1621.11 1283.08 1550.38C1308.27 1514.83 1327.12 1476.48 1339.65 1435.34L1590.96 1686.65H1908.43L1185.9 951.084L1874.27 270.111H1560.82L936.504 896.438C934.98 896.1 933.451 895.763 931.919 895.43V425.466C961.6 431.681 990.247 439.758 1017.86 449.698C1091.53 474.747 1159.31 513.058 1221.2 564.629L1307.4 352.449C1266.14 314.139 1217.51 281.723 1161.52 255.2C1107 227.204 1046.59 206.576 980.284 193.314C915.452 178.58 847.672 171.213 776.945 171.213ZM931.919 1157.61C947.197 1162.95 961.11 1168.63 973.654 1174.65C1010.49 1192.33 1037.01 1213.69 1053.22 1238.74C1069.43 1262.32 1077.53 1291.05 1077.53 1324.94C1077.53 1386.83 1051.01 1437.66 997.966 1477.44C979.705 1490.63 957.689 1501.55 931.919 1510.2V1157.61ZM674.731 841.122C594.219 823.622 536.934 799.976 502.88 770.179C467.517 737.762 449.835 695.031 449.835 641.986C449.835 594.835 462.359 554.315 487.408 520.425C513.931 485.062 551.504 457.803 600.129 438.647C622.896 429.678 647.764 422.809 674.731 418.039V841.122Z" fill="#FDD741"/>
</svg>
